<mxfile host="app.diagrams.net" agent="Mozilla/5.0 (Macintosh; Intel Mac OS X 10_15_7) AppleWebKit/537.36 (KHTML, like Gecko) Chrome/129.0.0.0 Safari/537.36" version="24.8.6">
  <diagram id="C5RBs43oDa-KdzZeNtuy" name="Page-1">
    <mxGraphModel dx="1793" dy="994" grid="1" gridSize="10" guides="1" tooltips="1" connect="1" arrows="1" fold="1" page="1" pageScale="1" pageWidth="827" pageHeight="1169" math="0" shadow="0">
      <root>
        <mxCell id="WIyWlLk6GJQsqaUBKTNV-0" />
        <mxCell id="WIyWlLk6GJQsqaUBKTNV-1" parent="WIyWlLk6GJQsqaUBKTNV-0" />
        <mxCell id="zNMiChRaGcJFo_TWJvuN-45" value="" style="rounded=0;whiteSpace=wrap;html=1;fillColor=none;" vertex="1" parent="WIyWlLk6GJQsqaUBKTNV-1">
          <mxGeometry x="470" y="360" width="1030" height="100" as="geometry" />
        </mxCell>
        <mxCell id="zNMiChRaGcJFo_TWJvuN-21" value="" style="rounded=0;whiteSpace=wrap;html=1;fillColor=none;" vertex="1" parent="WIyWlLk6GJQsqaUBKTNV-1">
          <mxGeometry x="470" y="130" width="1030" height="100" as="geometry" />
        </mxCell>
        <mxCell id="zNMiChRaGcJFo_TWJvuN-3" value="" style="edgeStyle=orthogonalEdgeStyle;rounded=0;orthogonalLoop=1;jettySize=auto;html=1;" edge="1" parent="WIyWlLk6GJQsqaUBKTNV-1" source="zNMiChRaGcJFo_TWJvuN-1" target="zNMiChRaGcJFo_TWJvuN-2">
          <mxGeometry relative="1" as="geometry" />
        </mxCell>
        <mxCell id="zNMiChRaGcJFo_TWJvuN-4" value="&lt;font style=&quot;font-size: 16px;&quot;&gt;http&lt;/font&gt;" style="edgeLabel;html=1;align=center;verticalAlign=middle;resizable=0;points=[];" vertex="1" connectable="0" parent="zNMiChRaGcJFo_TWJvuN-3">
          <mxGeometry x="-0.24" y="2" relative="1" as="geometry">
            <mxPoint x="3" y="-18" as="offset" />
          </mxGeometry>
        </mxCell>
        <mxCell id="zNMiChRaGcJFo_TWJvuN-1" value="MIS推送收货报文" style="rounded=1;whiteSpace=wrap;html=1;fillColor=#dae8fc;strokeColor=#6c8ebf;" vertex="1" parent="WIyWlLk6GJQsqaUBKTNV-1">
          <mxGeometry x="50" y="150" width="120" height="60" as="geometry" />
        </mxCell>
        <mxCell id="zNMiChRaGcJFo_TWJvuN-8" value="" style="edgeStyle=orthogonalEdgeStyle;rounded=0;orthogonalLoop=1;jettySize=auto;html=1;" edge="1" parent="WIyWlLk6GJQsqaUBKTNV-1" source="zNMiChRaGcJFo_TWJvuN-2" target="zNMiChRaGcJFo_TWJvuN-7">
          <mxGeometry relative="1" as="geometry" />
        </mxCell>
        <mxCell id="zNMiChRaGcJFo_TWJvuN-2" value="记录请求日志&lt;div&gt;HH_MIS_GR_REQ_LOG&lt;/div&gt;&lt;div&gt;失败补偿，通过该日志进行&lt;/div&gt;" style="rounded=1;whiteSpace=wrap;html=1;fillColor=#d5e8d4;strokeColor=#82b366;" vertex="1" parent="WIyWlLk6GJQsqaUBKTNV-1">
          <mxGeometry x="240" y="152.5" width="180" height="55" as="geometry" />
        </mxCell>
        <mxCell id="zNMiChRaGcJFo_TWJvuN-5" value="MIS" style="rounded=1;whiteSpace=wrap;html=1;fillColor=#dae8fc;strokeColor=#6c8ebf;" vertex="1" parent="WIyWlLk6GJQsqaUBKTNV-1">
          <mxGeometry x="50" y="80" width="40" height="20" as="geometry" />
        </mxCell>
        <mxCell id="zNMiChRaGcJFo_TWJvuN-6" value="送货" style="rounded=1;whiteSpace=wrap;html=1;fillColor=#d5e8d4;strokeColor=#82b366;" vertex="1" parent="WIyWlLk6GJQsqaUBKTNV-1">
          <mxGeometry x="100" y="80" width="40" height="20" as="geometry" />
        </mxCell>
        <mxCell id="zNMiChRaGcJFo_TWJvuN-10" value="" style="edgeStyle=orthogonalEdgeStyle;rounded=0;orthogonalLoop=1;jettySize=auto;html=1;" edge="1" parent="WIyWlLk6GJQsqaUBKTNV-1" source="zNMiChRaGcJFo_TWJvuN-7" target="zNMiChRaGcJFo_TWJvuN-9">
          <mxGeometry relative="1" as="geometry" />
        </mxCell>
        <mxCell id="zNMiChRaGcJFo_TWJvuN-7" value="数据校验&lt;div&gt;加锁防止并发&lt;/div&gt;&lt;div&gt;校验请求日志状态&amp;nbsp; &amp;nbsp;幂等控制&lt;/div&gt;" style="rounded=1;whiteSpace=wrap;html=1;fillColor=#d5e8d4;strokeColor=#82b366;" vertex="1" parent="WIyWlLk6GJQsqaUBKTNV-1">
          <mxGeometry x="490" y="152.5" width="180" height="55" as="geometry" />
        </mxCell>
        <mxCell id="zNMiChRaGcJFo_TWJvuN-12" value="" style="edgeStyle=orthogonalEdgeStyle;rounded=0;orthogonalLoop=1;jettySize=auto;html=1;" edge="1" parent="WIyWlLk6GJQsqaUBKTNV-1" source="zNMiChRaGcJFo_TWJvuN-9" target="zNMiChRaGcJFo_TWJvuN-11">
          <mxGeometry relative="1" as="geometry" />
        </mxCell>
        <mxCell id="zNMiChRaGcJFo_TWJvuN-9" value="校验送货单&lt;div&gt;校验PO&lt;/div&gt;&lt;div&gt;关闭标识&lt;br&gt;&lt;/div&gt;" style="rounded=1;whiteSpace=wrap;html=1;fillColor=#d5e8d4;strokeColor=#82b366;" vertex="1" parent="WIyWlLk6GJQsqaUBKTNV-1">
          <mxGeometry x="740" y="152.5" width="100" height="55" as="geometry" />
        </mxCell>
        <mxCell id="zNMiChRaGcJFo_TWJvuN-14" value="" style="edgeStyle=orthogonalEdgeStyle;rounded=0;orthogonalLoop=1;jettySize=auto;html=1;" edge="1" parent="WIyWlLk6GJQsqaUBKTNV-1" source="zNMiChRaGcJFo_TWJvuN-11" target="zNMiChRaGcJFo_TWJvuN-13">
          <mxGeometry relative="1" as="geometry" />
        </mxCell>
        <mxCell id="zNMiChRaGcJFo_TWJvuN-11" value="更新送货明细&lt;div&gt;更新送货单状态&lt;/div&gt;" style="rounded=1;whiteSpace=wrap;html=1;fillColor=#d5e8d4;strokeColor=#82b366;" vertex="1" parent="WIyWlLk6GJQsqaUBKTNV-1">
          <mxGeometry x="890" y="152.5" width="110" height="55" as="geometry" />
        </mxCell>
        <mxCell id="zNMiChRaGcJFo_TWJvuN-16" value="" style="edgeStyle=orthogonalEdgeStyle;rounded=0;orthogonalLoop=1;jettySize=auto;html=1;" edge="1" parent="WIyWlLk6GJQsqaUBKTNV-1" source="zNMiChRaGcJFo_TWJvuN-13" target="zNMiChRaGcJFo_TWJvuN-15">
          <mxGeometry relative="1" as="geometry" />
        </mxCell>
        <mxCell id="zNMiChRaGcJFo_TWJvuN-13" value="远程调用&lt;div&gt;更新采购单&lt;/div&gt;" style="rounded=1;whiteSpace=wrap;html=1;fillColor=#d5e8d4;strokeColor=#82b366;" vertex="1" parent="WIyWlLk6GJQsqaUBKTNV-1">
          <mxGeometry x="1050" y="152.5" width="110" height="55" as="geometry" />
        </mxCell>
        <mxCell id="zNMiChRaGcJFo_TWJvuN-18" value="" style="edgeStyle=orthogonalEdgeStyle;rounded=0;orthogonalLoop=1;jettySize=auto;html=1;" edge="1" parent="WIyWlLk6GJQsqaUBKTNV-1" source="zNMiChRaGcJFo_TWJvuN-15" target="zNMiChRaGcJFo_TWJvuN-17">
          <mxGeometry relative="1" as="geometry" />
        </mxCell>
        <mxCell id="zNMiChRaGcJFo_TWJvuN-15" value="插入&lt;div&gt;收货进度表&lt;/div&gt;" style="rounded=1;whiteSpace=wrap;html=1;fillColor=#d5e8d4;strokeColor=#82b366;" vertex="1" parent="WIyWlLk6GJQsqaUBKTNV-1">
          <mxGeometry x="1210" y="152.5" width="110" height="55" as="geometry" />
        </mxCell>
        <mxCell id="zNMiChRaGcJFo_TWJvuN-20" value="" style="edgeStyle=orthogonalEdgeStyle;rounded=0;orthogonalLoop=1;jettySize=auto;html=1;" edge="1" parent="WIyWlLk6GJQsqaUBKTNV-1" source="zNMiChRaGcJFo_TWJvuN-17" target="zNMiChRaGcJFo_TWJvuN-19">
          <mxGeometry relative="1" as="geometry" />
        </mxCell>
        <mxCell id="zNMiChRaGcJFo_TWJvuN-17" value="解锁" style="rounded=1;whiteSpace=wrap;html=1;fillColor=#d5e8d4;strokeColor=#82b366;" vertex="1" parent="WIyWlLk6GJQsqaUBKTNV-1">
          <mxGeometry x="1370" y="152.5" width="110" height="55" as="geometry" />
        </mxCell>
        <mxCell id="zNMiChRaGcJFo_TWJvuN-25" value="" style="edgeStyle=orthogonalEdgeStyle;rounded=0;orthogonalLoop=1;jettySize=auto;html=1;" edge="1" parent="WIyWlLk6GJQsqaUBKTNV-1" source="zNMiChRaGcJFo_TWJvuN-19" target="zNMiChRaGcJFo_TWJvuN-24">
          <mxGeometry relative="1" as="geometry" />
        </mxCell>
        <mxCell id="zNMiChRaGcJFo_TWJvuN-19" value="更新请求日志状态" style="rounded=1;whiteSpace=wrap;html=1;fillColor=#d5e8d4;strokeColor=#82b366;" vertex="1" parent="WIyWlLk6GJQsqaUBKTNV-1">
          <mxGeometry x="1530" y="152.5" width="110" height="55" as="geometry" />
        </mxCell>
        <mxCell id="zNMiChRaGcJFo_TWJvuN-22" value="一个事务" style="text;html=1;align=center;verticalAlign=middle;whiteSpace=wrap;rounded=0;" vertex="1" parent="WIyWlLk6GJQsqaUBKTNV-1">
          <mxGeometry x="470" y="100" width="50" height="30" as="geometry" />
        </mxCell>
        <mxCell id="zNMiChRaGcJFo_TWJvuN-51" value="" style="edgeStyle=orthogonalEdgeStyle;rounded=0;orthogonalLoop=1;jettySize=auto;html=1;" edge="1" parent="WIyWlLk6GJQsqaUBKTNV-1" source="zNMiChRaGcJFo_TWJvuN-24" target="zNMiChRaGcJFo_TWJvuN-50">
          <mxGeometry relative="1" as="geometry" />
        </mxCell>
        <mxCell id="zNMiChRaGcJFo_TWJvuN-24" value="&lt;div&gt;远程调用&lt;/div&gt;调用收货，不关心结果" style="rounded=1;whiteSpace=wrap;html=1;fillColor=#d5e8d4;strokeColor=#82b366;" vertex="1" parent="WIyWlLk6GJQsqaUBKTNV-1">
          <mxGeometry x="1688" y="152.5" width="122" height="55" as="geometry" />
        </mxCell>
        <mxCell id="zNMiChRaGcJFo_TWJvuN-26" value="" style="edgeStyle=orthogonalEdgeStyle;rounded=0;orthogonalLoop=1;jettySize=auto;html=1;" edge="1" parent="WIyWlLk6GJQsqaUBKTNV-1" source="zNMiChRaGcJFo_TWJvuN-28" target="zNMiChRaGcJFo_TWJvuN-30">
          <mxGeometry relative="1" as="geometry" />
        </mxCell>
        <mxCell id="zNMiChRaGcJFo_TWJvuN-27" value="&lt;font style=&quot;font-size: 16px;&quot;&gt;http&lt;/font&gt;" style="edgeLabel;html=1;align=center;verticalAlign=middle;resizable=0;points=[];" vertex="1" connectable="0" parent="zNMiChRaGcJFo_TWJvuN-26">
          <mxGeometry x="-0.24" y="2" relative="1" as="geometry">
            <mxPoint x="3" y="-18" as="offset" />
          </mxGeometry>
        </mxCell>
        <mxCell id="zNMiChRaGcJFo_TWJvuN-28" value="MIS推送收货报文" style="rounded=1;whiteSpace=wrap;html=1;fillColor=#dae8fc;strokeColor=#6c8ebf;" vertex="1" parent="WIyWlLk6GJQsqaUBKTNV-1">
          <mxGeometry x="50" y="380" width="120" height="60" as="geometry" />
        </mxCell>
        <mxCell id="zNMiChRaGcJFo_TWJvuN-29" value="" style="edgeStyle=orthogonalEdgeStyle;rounded=0;orthogonalLoop=1;jettySize=auto;html=1;" edge="1" parent="WIyWlLk6GJQsqaUBKTNV-1" source="zNMiChRaGcJFo_TWJvuN-30" target="zNMiChRaGcJFo_TWJvuN-32">
          <mxGeometry relative="1" as="geometry" />
        </mxCell>
        <mxCell id="zNMiChRaGcJFo_TWJvuN-30" value="记录请求日志&lt;div&gt;HH_MIS_GR_REQ_LOG&lt;/div&gt;&lt;div&gt;失败补偿，通过该日志进行&lt;br&gt;&lt;/div&gt;" style="rounded=1;whiteSpace=wrap;html=1;fillColor=#d5e8d4;strokeColor=#82b366;" vertex="1" parent="WIyWlLk6GJQsqaUBKTNV-1">
          <mxGeometry x="240" y="382.5" width="180" height="55" as="geometry" />
        </mxCell>
        <mxCell id="zNMiChRaGcJFo_TWJvuN-31" value="" style="edgeStyle=orthogonalEdgeStyle;rounded=0;orthogonalLoop=1;jettySize=auto;html=1;" edge="1" parent="WIyWlLk6GJQsqaUBKTNV-1" source="zNMiChRaGcJFo_TWJvuN-32" target="zNMiChRaGcJFo_TWJvuN-34">
          <mxGeometry relative="1" as="geometry" />
        </mxCell>
        <mxCell id="zNMiChRaGcJFo_TWJvuN-32" value="数据校验&lt;div&gt;加锁防止并发&lt;/div&gt;&lt;div&gt;校验请求日志状态&amp;nbsp; &amp;nbsp;幂等控制&lt;/div&gt;" style="rounded=1;whiteSpace=wrap;html=1;fillColor=#d5e8d4;strokeColor=#82b366;" vertex="1" parent="WIyWlLk6GJQsqaUBKTNV-1">
          <mxGeometry x="490" y="382.5" width="180" height="55" as="geometry" />
        </mxCell>
        <mxCell id="zNMiChRaGcJFo_TWJvuN-33" value="" style="edgeStyle=orthogonalEdgeStyle;rounded=0;orthogonalLoop=1;jettySize=auto;html=1;" edge="1" parent="WIyWlLk6GJQsqaUBKTNV-1" source="zNMiChRaGcJFo_TWJvuN-34" target="zNMiChRaGcJFo_TWJvuN-36">
          <mxGeometry relative="1" as="geometry" />
        </mxCell>
        <mxCell id="zNMiChRaGcJFo_TWJvuN-34" value="校验送货单&lt;div&gt;校验PO&lt;/div&gt;" style="rounded=1;whiteSpace=wrap;html=1;fillColor=#d5e8d4;strokeColor=#82b366;" vertex="1" parent="WIyWlLk6GJQsqaUBKTNV-1">
          <mxGeometry x="740" y="382.5" width="100" height="55" as="geometry" />
        </mxCell>
        <mxCell id="zNMiChRaGcJFo_TWJvuN-35" value="" style="edgeStyle=orthogonalEdgeStyle;rounded=0;orthogonalLoop=1;jettySize=auto;html=1;" edge="1" parent="WIyWlLk6GJQsqaUBKTNV-1" source="zNMiChRaGcJFo_TWJvuN-36" target="zNMiChRaGcJFo_TWJvuN-38">
          <mxGeometry relative="1" as="geometry" />
        </mxCell>
        <mxCell id="zNMiChRaGcJFo_TWJvuN-36" value="更新送货明细&lt;div&gt;更新送货单状态&lt;/div&gt;" style="rounded=1;whiteSpace=wrap;html=1;fillColor=#d5e8d4;strokeColor=#82b366;" vertex="1" parent="WIyWlLk6GJQsqaUBKTNV-1">
          <mxGeometry x="890" y="382.5" width="110" height="55" as="geometry" />
        </mxCell>
        <mxCell id="zNMiChRaGcJFo_TWJvuN-37" value="" style="edgeStyle=orthogonalEdgeStyle;rounded=0;orthogonalLoop=1;jettySize=auto;html=1;" edge="1" parent="WIyWlLk6GJQsqaUBKTNV-1" source="zNMiChRaGcJFo_TWJvuN-38" target="zNMiChRaGcJFo_TWJvuN-40">
          <mxGeometry relative="1" as="geometry" />
        </mxCell>
        <mxCell id="zNMiChRaGcJFo_TWJvuN-38" value="远程调用&lt;div&gt;更新采购单&lt;/div&gt;" style="rounded=1;whiteSpace=wrap;html=1;fillColor=#f8cecc;strokeColor=#b85450;" vertex="1" parent="WIyWlLk6GJQsqaUBKTNV-1">
          <mxGeometry x="1050" y="382.5" width="110" height="55" as="geometry" />
        </mxCell>
        <mxCell id="zNMiChRaGcJFo_TWJvuN-39" value="" style="edgeStyle=orthogonalEdgeStyle;rounded=0;orthogonalLoop=1;jettySize=auto;html=1;" edge="1" parent="WIyWlLk6GJQsqaUBKTNV-1" source="zNMiChRaGcJFo_TWJvuN-40" target="zNMiChRaGcJFo_TWJvuN-42">
          <mxGeometry relative="1" as="geometry" />
        </mxCell>
        <mxCell id="zNMiChRaGcJFo_TWJvuN-40" value="&lt;font color=&quot;#ff3333&quot;&gt;按PO分组&lt;/font&gt;&lt;div&gt;&lt;font color=&quot;#ff3333&quot;&gt;插入多条收货进度表&lt;/font&gt;&lt;/div&gt;" style="rounded=1;whiteSpace=wrap;html=1;fillColor=#d5e8d4;strokeColor=#82b366;" vertex="1" parent="WIyWlLk6GJQsqaUBKTNV-1">
          <mxGeometry x="1210" y="382.5" width="110" height="55" as="geometry" />
        </mxCell>
        <mxCell id="zNMiChRaGcJFo_TWJvuN-41" value="" style="edgeStyle=orthogonalEdgeStyle;rounded=0;orthogonalLoop=1;jettySize=auto;html=1;" edge="1" parent="WIyWlLk6GJQsqaUBKTNV-1" source="zNMiChRaGcJFo_TWJvuN-42" target="zNMiChRaGcJFo_TWJvuN-44">
          <mxGeometry relative="1" as="geometry" />
        </mxCell>
        <mxCell id="zNMiChRaGcJFo_TWJvuN-42" value="解锁" style="rounded=1;whiteSpace=wrap;html=1;fillColor=#d5e8d4;strokeColor=#82b366;" vertex="1" parent="WIyWlLk6GJQsqaUBKTNV-1">
          <mxGeometry x="1370" y="382.5" width="110" height="55" as="geometry" />
        </mxCell>
        <mxCell id="zNMiChRaGcJFo_TWJvuN-62" value="" style="edgeStyle=orthogonalEdgeStyle;rounded=0;orthogonalLoop=1;jettySize=auto;html=1;" edge="1" parent="WIyWlLk6GJQsqaUBKTNV-1" source="zNMiChRaGcJFo_TWJvuN-44" target="zNMiChRaGcJFo_TWJvuN-61">
          <mxGeometry relative="1" as="geometry" />
        </mxCell>
        <mxCell id="zNMiChRaGcJFo_TWJvuN-44" value="更新请求日志状态" style="rounded=1;whiteSpace=wrap;html=1;fillColor=#d5e8d4;strokeColor=#82b366;" vertex="1" parent="WIyWlLk6GJQsqaUBKTNV-1">
          <mxGeometry x="1530" y="382.5" width="110" height="55" as="geometry" />
        </mxCell>
        <mxCell id="zNMiChRaGcJFo_TWJvuN-46" value="一个事务" style="text;html=1;align=center;verticalAlign=middle;whiteSpace=wrap;rounded=0;" vertex="1" parent="WIyWlLk6GJQsqaUBKTNV-1">
          <mxGeometry x="470" y="330" width="50" height="30" as="geometry" />
        </mxCell>
        <mxCell id="zNMiChRaGcJFo_TWJvuN-48" value="" style="endArrow=none;html=1;rounded=0;" edge="1" parent="WIyWlLk6GJQsqaUBKTNV-1">
          <mxGeometry width="50" height="50" relative="1" as="geometry">
            <mxPoint x="1070" y="380" as="sourcePoint" />
            <mxPoint x="1140" y="450" as="targetPoint" />
          </mxGeometry>
        </mxCell>
        <mxCell id="zNMiChRaGcJFo_TWJvuN-49" value="" style="endArrow=none;html=1;rounded=0;entryX=0.662;entryY=-0.013;entryDx=0;entryDy=0;entryPerimeter=0;" edge="1" parent="WIyWlLk6GJQsqaUBKTNV-1">
          <mxGeometry width="50" height="50" relative="1" as="geometry">
            <mxPoint x="1069.07" y="448.15" as="sourcePoint" />
            <mxPoint x="1140.93" y="371.8499999999999" as="targetPoint" />
          </mxGeometry>
        </mxCell>
        <mxCell id="zNMiChRaGcJFo_TWJvuN-50" value="返回MIS结果&lt;div&gt;&lt;/div&gt;" style="rounded=1;whiteSpace=wrap;html=1;fillColor=#d5e8d4;strokeColor=#82b366;" vertex="1" parent="WIyWlLk6GJQsqaUBKTNV-1">
          <mxGeometry x="1860" y="152.5" width="122" height="55" as="geometry" />
        </mxCell>
        <mxCell id="zNMiChRaGcJFo_TWJvuN-56" value="" style="edgeStyle=orthogonalEdgeStyle;rounded=0;orthogonalLoop=1;jettySize=auto;html=1;" edge="1" parent="WIyWlLk6GJQsqaUBKTNV-1" source="zNMiChRaGcJFo_TWJvuN-53">
          <mxGeometry relative="1" as="geometry">
            <mxPoint x="1854" y="535" as="targetPoint" />
          </mxGeometry>
        </mxCell>
        <mxCell id="zNMiChRaGcJFo_TWJvuN-53" value="按PO分组&lt;div&gt;&lt;/div&gt;&lt;div&gt;循环去调用收货接口&lt;/div&gt;" style="rounded=1;whiteSpace=wrap;html=1;fillColor=#d5e8d4;strokeColor=#82b366;" vertex="1" parent="WIyWlLk6GJQsqaUBKTNV-1">
          <mxGeometry x="1682" y="507.5" width="122" height="55" as="geometry" />
        </mxCell>
        <mxCell id="zNMiChRaGcJFo_TWJvuN-67" value="" style="edgeStyle=orthogonalEdgeStyle;rounded=0;orthogonalLoop=1;jettySize=auto;html=1;entryX=0.5;entryY=1;entryDx=0;entryDy=0;exitX=0.5;exitY=1;exitDx=0;exitDy=0;" edge="1" parent="WIyWlLk6GJQsqaUBKTNV-1" source="zNMiChRaGcJFo_TWJvuN-57" target="zNMiChRaGcJFo_TWJvuN-53">
          <mxGeometry relative="1" as="geometry">
            <mxPoint x="1924" y="650" as="targetPoint" />
          </mxGeometry>
        </mxCell>
        <mxCell id="zNMiChRaGcJFo_TWJvuN-68" value="成功：继续下一条" style="edgeLabel;html=1;align=center;verticalAlign=middle;resizable=0;points=[];" vertex="1" connectable="0" parent="zNMiChRaGcJFo_TWJvuN-67">
          <mxGeometry x="-0.1971" relative="1" as="geometry">
            <mxPoint x="-13" y="10" as="offset" />
          </mxGeometry>
        </mxCell>
        <mxCell id="zNMiChRaGcJFo_TWJvuN-57" value="成功/失败" style="rhombus;whiteSpace=wrap;html=1;fillColor=#fff2cc;strokeColor=#d6b656;" vertex="1" parent="WIyWlLk6GJQsqaUBKTNV-1">
          <mxGeometry x="1854" y="500" width="140" height="70" as="geometry" />
        </mxCell>
        <mxCell id="zNMiChRaGcJFo_TWJvuN-64" value="" style="edgeStyle=orthogonalEdgeStyle;rounded=0;orthogonalLoop=1;jettySize=auto;html=1;" edge="1" parent="WIyWlLk6GJQsqaUBKTNV-1" source="zNMiChRaGcJFo_TWJvuN-61" target="zNMiChRaGcJFo_TWJvuN-63">
          <mxGeometry relative="1" as="geometry" />
        </mxCell>
        <mxCell id="zNMiChRaGcJFo_TWJvuN-65" value="" style="edgeStyle=orthogonalEdgeStyle;rounded=0;orthogonalLoop=1;jettySize=auto;html=1;" edge="1" parent="WIyWlLk6GJQsqaUBKTNV-1" source="zNMiChRaGcJFo_TWJvuN-61" target="zNMiChRaGcJFo_TWJvuN-53">
          <mxGeometry relative="1" as="geometry" />
        </mxCell>
        <mxCell id="zNMiChRaGcJFo_TWJvuN-61" value="开启异步" style="rounded=1;whiteSpace=wrap;html=1;fillColor=#d5e8d4;strokeColor=#82b366;" vertex="1" parent="WIyWlLk6GJQsqaUBKTNV-1">
          <mxGeometry x="1688" y="382.5" width="110" height="55" as="geometry" />
        </mxCell>
        <mxCell id="zNMiChRaGcJFo_TWJvuN-63" value="返回MIS结果" style="rounded=1;whiteSpace=wrap;html=1;fillColor=#d5e8d4;strokeColor=#82b366;" vertex="1" parent="WIyWlLk6GJQsqaUBKTNV-1">
          <mxGeometry x="1860" y="382.5" width="110" height="55" as="geometry" />
        </mxCell>
        <mxCell id="zNMiChRaGcJFo_TWJvuN-69" value="逻辑要求删除" style="text;html=1;align=center;verticalAlign=middle;whiteSpace=wrap;rounded=0;" vertex="1" parent="WIyWlLk6GJQsqaUBKTNV-1">
          <mxGeometry x="1050" y="352.5" width="100" height="30" as="geometry" />
        </mxCell>
        <mxCell id="zNMiChRaGcJFo_TWJvuN-70" value="历史逻辑" style="text;html=1;align=center;verticalAlign=middle;whiteSpace=wrap;rounded=0;fontSize=29;" vertex="1" parent="WIyWlLk6GJQsqaUBKTNV-1">
          <mxGeometry x="50" y="240" width="180" height="30" as="geometry" />
        </mxCell>
        <mxCell id="zNMiChRaGcJFo_TWJvuN-71" value="收货工作流重构后的流程改造" style="text;html=1;align=center;verticalAlign=middle;whiteSpace=wrap;rounded=0;fontSize=29;" vertex="1" parent="WIyWlLk6GJQsqaUBKTNV-1">
          <mxGeometry x="60" y="480.5" width="430" height="30" as="geometry" />
        </mxCell>
        <mxCell id="zNMiChRaGcJFo_TWJvuN-72" value="" style="edgeStyle=orthogonalEdgeStyle;rounded=0;orthogonalLoop=1;jettySize=auto;html=1;exitX=1;exitY=0.5;exitDx=0;exitDy=0;entryX=0.5;entryY=1;entryDx=0;entryDy=0;" edge="1" parent="WIyWlLk6GJQsqaUBKTNV-1" source="zNMiChRaGcJFo_TWJvuN-57" target="zNMiChRaGcJFo_TWJvuN-53">
          <mxGeometry relative="1" as="geometry">
            <mxPoint x="2004" y="545" as="sourcePoint" />
            <mxPoint x="1740" y="570" as="targetPoint" />
            <Array as="points">
              <mxPoint x="2014" y="535" />
              <mxPoint x="2014" y="630" />
              <mxPoint x="1743" y="630" />
            </Array>
          </mxGeometry>
        </mxCell>
        <mxCell id="zNMiChRaGcJFo_TWJvuN-73" value="失败：继续下一条&amp;nbsp;&lt;div&gt;告警PM&lt;/div&gt;" style="edgeLabel;html=1;align=center;verticalAlign=middle;resizable=0;points=[];" vertex="1" connectable="0" parent="zNMiChRaGcJFo_TWJvuN-72">
          <mxGeometry x="-0.5455" relative="1" as="geometry">
            <mxPoint x="6" y="22" as="offset" />
          </mxGeometry>
        </mxCell>
        <mxCell id="zNMiChRaGcJFo_TWJvuN-74" value="异常时，收货进度表数据监控" style="rounded=0;whiteSpace=wrap;html=1;" vertex="1" parent="WIyWlLk6GJQsqaUBKTNV-1">
          <mxGeometry x="1460" y="505" width="120" height="45" as="geometry" />
        </mxCell>
        <mxCell id="zNMiChRaGcJFo_TWJvuN-75" value="" style="endArrow=classic;html=1;rounded=0;entryX=0.5;entryY=0;entryDx=0;entryDy=0;exitX=0.25;exitY=1;exitDx=0;exitDy=0;" edge="1" parent="WIyWlLk6GJQsqaUBKTNV-1" source="zNMiChRaGcJFo_TWJvuN-61" target="zNMiChRaGcJFo_TWJvuN-74">
          <mxGeometry width="50" height="50" relative="1" as="geometry">
            <mxPoint x="1670" y="480" as="sourcePoint" />
            <mxPoint x="1720" y="430" as="targetPoint" />
          </mxGeometry>
        </mxCell>
        <mxCell id="zNMiChRaGcJFo_TWJvuN-79" value="PM通过收货进度表手动补偿" style="rounded=0;whiteSpace=wrap;html=1;" vertex="1" parent="WIyWlLk6GJQsqaUBKTNV-1">
          <mxGeometry x="1830" y="656" width="120" height="45" as="geometry" />
        </mxCell>
        <mxCell id="zNMiChRaGcJFo_TWJvuN-80" value="" style="endArrow=classic;html=1;rounded=0;entryX=1;entryY=0.5;entryDx=0;entryDy=0;" edge="1" parent="WIyWlLk6GJQsqaUBKTNV-1" target="zNMiChRaGcJFo_TWJvuN-79">
          <mxGeometry width="50" height="50" relative="1" as="geometry">
            <mxPoint x="2020" y="660" as="sourcePoint" />
            <mxPoint x="1940" y="560" as="targetPoint" />
          </mxGeometry>
        </mxCell>
      </root>
    </mxGraphModel>
  </diagram>
</mxfile>
